<svg xmlns="http://www.w3.org/2000/svg" xmlns:xlink="http://www.w3.org/1999/xlink" width="500" zoomAndPan="magnify" viewBox="0 0 375 374.999991" height="500" preserveAspectRatio="xMidYMid meet" version="1.0"><defs><g/><clipPath id="3a04964eb9"><path d="M 117 99.972656 L 259.105469 99.972656 L 259.105469 219.972656 L 117 219.972656 Z M 117 99.972656 " clip-rule="nonzero"/></clipPath><clipPath id="5ef00b8fc3"><path d="M 259.070312 111.433594 C 259.070312 117.761719 253.9375 122.898438 247.609375 122.898438 L 162.691406 122.898438 C 156.363281 122.898438 151.230469 117.761719 151.230469 111.433594 C 151.230469 105.105469 156.363281 99.972656 162.691406 99.972656 L 247.609375 99.972656 C 253.9375 99.972656 259.070312 105.105469 259.070312 111.433594 Z M 223.351562 148.507812 L 153.421875 148.507812 C 139.804688 148.507812 127.5625 156.078125 121.472656 168.257812 C 115.894531 179.414062 116.480469 192.410156 123.035156 203.023438 C 129.589844 213.636719 140.953125 219.972656 153.421875 219.972656 L 199.085938 219.972656 C 205.410156 219.972656 210.542969 214.839844 210.542969 208.507812 C 210.542969 202.179688 205.410156 197.046875 199.085938 197.046875 L 153.421875 197.046875 C 148.886719 197.046875 144.914062 194.832031 142.527344 190.972656 C 140.140625 187.113281 139.9375 182.570312 141.96875 178.507812 C 144.152344 174.144531 148.539062 171.429688 153.421875 171.429688 L 223.351562 171.429688 C 229.675781 171.429688 234.808594 166.296875 234.808594 159.964844 C 234.808594 153.640625 229.675781 148.507812 223.351562 148.507812 Z M 223.351562 148.507812 " clip-rule="nonzero"/></clipPath><linearGradient x1="2868.590026" gradientTransform="matrix(0.0517829, 0, 0, 0.0517956, 117.671137, 99.971828)" y1="907.936978" x2="-178.048886" gradientUnits="userSpaceOnUse" y2="1370.971201" id="dad781f72e"><stop stop-opacity="1" stop-color="rgb(41.03241%, 17.533875%, 56.67572%)" offset="0"/><stop stop-opacity="1" stop-color="rgb(41.203308%, 17.514038%, 56.645203%)" offset="0.015625"/><stop stop-opacity="1" stop-color="rgb(41.545105%, 17.475891%, 56.584167%)" offset="0.03125"/><stop stop-opacity="1" stop-color="rgb(41.886902%, 17.437744%, 56.523132%)" offset="0.046875"/><stop stop-opacity="1" stop-color="rgb(42.228699%, 17.401123%, 56.462097%)" offset="0.0625"/><stop stop-opacity="1" stop-color="rgb(42.572021%, 17.362976%, 56.402588%)" offset="0.078125"/><stop stop-opacity="1" stop-color="rgb(42.913818%, 17.324829%, 56.341553%)" offset="0.09375"/><stop stop-opacity="1" stop-color="rgb(43.255615%, 17.286682%, 56.280518%)" offset="0.109375"/><stop stop-opacity="1" stop-color="rgb(43.597412%, 17.248535%, 56.219482%)" offset="0.112965"/><stop stop-opacity="1" stop-color="rgb(43.768311%, 17.230225%, 56.188965%)" offset="0.125"/><stop stop-opacity="1" stop-color="rgb(43.939209%, 17.210388%, 56.158447%)" offset="0.140625"/><stop stop-opacity="1" stop-color="rgb(44.281006%, 17.172241%, 56.097412%)" offset="0.15625"/><stop stop-opacity="1" stop-color="rgb(44.622803%, 17.134094%, 56.037903%)" offset="0.171875"/><stop stop-opacity="1" stop-color="rgb(44.9646%, 17.095947%, 55.976868%)" offset="0.1875"/><stop stop-opacity="1" stop-color="rgb(45.306396%, 17.0578%, 55.915833%)" offset="0.203125"/><stop stop-opacity="1" stop-color="rgb(45.648193%, 17.019653%, 55.854797%)" offset="0.21875"/><stop stop-opacity="1" stop-color="rgb(45.98999%, 16.981506%, 55.793762%)" offset="0.234375"/><stop stop-opacity="1" stop-color="rgb(46.331787%, 16.943359%, 55.732727%)" offset="0.25"/><stop stop-opacity="1" stop-color="rgb(46.673584%, 16.905212%, 55.673218%)" offset="0.265625"/><stop stop-opacity="1" stop-color="rgb(47.015381%, 16.868591%, 55.612183%)" offset="0.28125"/><stop stop-opacity="1" stop-color="rgb(47.357178%, 16.830444%, 55.551147%)" offset="0.296875"/><stop stop-opacity="1" stop-color="rgb(47.698975%, 16.792297%, 55.490112%)" offset="0.3125"/><stop stop-opacity="1" stop-color="rgb(48.040771%, 16.75415%, 55.429077%)" offset="0.328125"/><stop stop-opacity="1" stop-color="rgb(48.382568%, 16.716003%, 55.369568%)" offset="0.34375"/><stop stop-opacity="1" stop-color="rgb(48.724365%, 16.677856%, 55.308533%)" offset="0.359375"/><stop stop-opacity="1" stop-color="rgb(49.066162%, 16.639709%, 55.247498%)" offset="0.375"/><stop stop-opacity="1" stop-color="rgb(49.409485%, 16.601562%, 55.186462%)" offset="0.390625"/><stop stop-opacity="1" stop-color="rgb(49.751282%, 16.563416%, 55.125427%)" offset="0.40625"/><stop stop-opacity="1" stop-color="rgb(50.093079%, 16.525269%, 55.064392%)" offset="0.421875"/><stop stop-opacity="1" stop-color="rgb(50.434875%, 16.487122%, 55.004883%)" offset="0.4375"/><stop stop-opacity="1" stop-color="rgb(50.776672%, 16.448975%, 54.943848%)" offset="0.453125"/><stop stop-opacity="1" stop-color="rgb(51.118469%, 16.410828%, 54.882812%)" offset="0.46875"/><stop stop-opacity="1" stop-color="rgb(51.460266%, 16.372681%, 54.821777%)" offset="0.484375"/><stop stop-opacity="1" stop-color="rgb(51.802063%, 16.33606%, 54.760742%)" offset="0.5"/><stop stop-opacity="1" stop-color="rgb(52.14386%, 16.297913%, 54.699707%)" offset="0.515625"/><stop stop-opacity="1" stop-color="rgb(52.485657%, 16.259766%, 54.640198%)" offset="0.53125"/><stop stop-opacity="1" stop-color="rgb(52.827454%, 16.221619%, 54.579163%)" offset="0.546875"/><stop stop-opacity="1" stop-color="rgb(53.16925%, 16.183472%, 54.518127%)" offset="0.5625"/><stop stop-opacity="1" stop-color="rgb(53.511047%, 16.145325%, 54.457092%)" offset="0.578125"/><stop stop-opacity="1" stop-color="rgb(53.852844%, 16.107178%, 54.396057%)" offset="0.59375"/><stop stop-opacity="1" stop-color="rgb(54.194641%, 16.069031%, 54.336548%)" offset="0.609375"/><stop stop-opacity="1" stop-color="rgb(54.536438%, 16.030884%, 54.275513%)" offset="0.625"/><stop stop-opacity="1" stop-color="rgb(54.878235%, 15.992737%, 54.214478%)" offset="0.640625"/><stop stop-opacity="1" stop-color="rgb(55.220032%, 15.95459%, 54.153442%)" offset="0.65625"/><stop stop-opacity="1" stop-color="rgb(55.561829%, 15.916443%, 54.092407%)" offset="0.671875"/><stop stop-opacity="1" stop-color="rgb(55.905151%, 15.878296%, 54.031372%)" offset="0.6875"/><stop stop-opacity="1" stop-color="rgb(56.246948%, 15.840149%, 53.971863%)" offset="0.703125"/><stop stop-opacity="1" stop-color="rgb(56.588745%, 15.803528%, 53.910828%)" offset="0.71875"/><stop stop-opacity="1" stop-color="rgb(56.930542%, 15.765381%, 53.849792%)" offset="0.734375"/><stop stop-opacity="1" stop-color="rgb(57.272339%, 15.727234%, 53.788757%)" offset="0.75"/><stop stop-opacity="1" stop-color="rgb(57.614136%, 15.689087%, 53.727722%)" offset="0.765625"/><stop stop-opacity="1" stop-color="rgb(57.955933%, 15.65094%, 53.666687%)" offset="0.78125"/><stop stop-opacity="1" stop-color="rgb(58.297729%, 15.612793%, 53.607178%)" offset="0.796875"/><stop stop-opacity="1" stop-color="rgb(58.639526%, 15.574646%, 53.546143%)" offset="0.8125"/><stop stop-opacity="1" stop-color="rgb(58.981323%, 15.536499%, 53.485107%)" offset="0.828125"/><stop stop-opacity="1" stop-color="rgb(59.32312%, 15.498352%, 53.424072%)" offset="0.84375"/><stop stop-opacity="1" stop-color="rgb(59.664917%, 15.460205%, 53.363037%)" offset="0.859375"/><stop stop-opacity="1" stop-color="rgb(60.006714%, 15.422058%, 53.302002%)" offset="0.875"/><stop stop-opacity="1" stop-color="rgb(60.348511%, 15.383911%, 53.242493%)" offset="0.887035"/><stop stop-opacity="1" stop-color="rgb(60.519409%, 15.365601%, 53.211975%)" offset="0.890625"/><stop stop-opacity="1" stop-color="rgb(60.690308%, 15.345764%, 53.181458%)" offset="0.90625"/><stop stop-opacity="1" stop-color="rgb(61.032104%, 15.309143%, 53.120422%)" offset="0.921875"/><stop stop-opacity="1" stop-color="rgb(61.373901%, 15.270996%, 53.059387%)" offset="0.9375"/><stop stop-opacity="1" stop-color="rgb(61.715698%, 15.232849%, 52.998352%)" offset="0.953125"/><stop stop-opacity="1" stop-color="rgb(62.057495%, 15.194702%, 52.938843%)" offset="0.96875"/><stop stop-opacity="1" stop-color="rgb(62.400818%, 15.156555%, 52.877808%)" offset="0.984375"/><stop stop-opacity="1" stop-color="rgb(62.742615%, 15.118408%, 52.816772%)" offset="1"/></linearGradient><clipPath id="ee1ffe958a"><rect x="0" width="162" y="0" height="42"/></clipPath></defs><g clip-path="url(#3a04964eb9)"><g clip-path="url(#5ef00b8fc3)"><path fill="url(#dad781f72e)" d="M 115.894531 99.972656 L 115.894531 219.972656 L 259.070312 219.972656 L 259.070312 99.972656 Z M 115.894531 99.972656 " fill-rule="nonzero"/></g></g><g transform="matrix(1, 0, 0, 1, 107, 225)"><g clip-path="url(#ee1ffe958a)"><g fill="#7d2a8d" fill-opacity="1"><g transform="translate(0.758095, 30.092578)"><g><path d="M 6.96875 -16.90625 L 6.96875 -12.65625 L 13.828125 -12.65625 L 13.828125 -8.703125 L 6.96875 -8.703125 L 6.96875 -4.09375 L 14.71875 -4.09375 L 14.71875 0 L 1.859375 0 L 1.859375 -21 L 14.71875 -21 L 14.71875 -16.90625 Z M 6.96875 -16.90625 "/></g></g></g><g fill="#7d2a8d" fill-opacity="1"><g transform="translate(16.943395, 30.092578)"><g><path d="M 21.578125 -21 L 14.125 0 L 7.71875 0 L 0.265625 -21 L 5.71875 -21 L 10.921875 -5.140625 L 16.15625 -21 Z M 21.578125 -21 "/></g></g></g><g fill="#7d2a8d" fill-opacity="1"><g transform="translate(38.783086, 30.092578)"><g><path d="M 6.96875 -16.90625 L 6.96875 -12.65625 L 13.828125 -12.65625 L 13.828125 -8.703125 L 6.96875 -8.703125 L 6.96875 -4.09375 L 14.71875 -4.09375 L 14.71875 0 L 1.859375 0 L 1.859375 -21 L 14.71875 -21 L 14.71875 -16.90625 Z M 6.96875 -16.90625 "/></g></g></g><g fill="#7d2a8d" fill-opacity="1"><g transform="translate(54.968386, 30.092578)"><g><path d="M 20.640625 0 L 15.53125 0 L 6.96875 -12.953125 L 6.96875 0 L 1.859375 0 L 1.859375 -21 L 6.96875 -21 L 15.53125 -7.984375 L 15.53125 -21 L 20.640625 -21 Z M 20.640625 0 "/></g></g></g><g fill="#7d2a8d" fill-opacity="1"><g transform="translate(77.466263, 30.092578)"><g><path d="M 16.96875 -21 L 16.96875 -16.90625 L 11.40625 -16.90625 L 11.40625 0 L 6.28125 0 L 6.28125 -16.90625 L 0.71875 -16.90625 L 0.71875 -21 Z M 16.96875 -21 "/></g></g></g><g fill="#7d2a8d" fill-opacity="1"><g transform="translate(95.147426, 30.092578)"><g><path d="M 11.796875 0.203125 C 9.816406 0.203125 8.003906 -0.253906 6.359375 -1.171875 C 4.710938 -2.085938 3.40625 -3.367188 2.4375 -5.015625 C 1.46875 -6.660156 0.984375 -8.507812 0.984375 -10.5625 C 0.984375 -12.613281 1.46875 -14.457031 2.4375 -16.09375 C 3.40625 -17.726562 4.710938 -19.003906 6.359375 -19.921875 C 8.003906 -20.835938 9.816406 -21.296875 11.796875 -21.296875 C 13.765625 -21.296875 15.570312 -20.835938 17.21875 -19.921875 C 18.863281 -19.003906 20.160156 -17.726562 21.109375 -16.09375 C 22.054688 -14.457031 22.53125 -12.613281 22.53125 -10.5625 C 22.53125 -8.507812 22.050781 -6.660156 21.09375 -5.015625 C 20.132812 -3.367188 18.835938 -2.085938 17.203125 -1.171875 C 15.566406 -0.253906 13.765625 0.203125 11.796875 0.203125 Z M 11.796875 -4.453125 C 13.460938 -4.453125 14.800781 -5.007812 15.8125 -6.125 C 16.820312 -7.25 17.328125 -8.726562 17.328125 -10.5625 C 17.328125 -12.414062 16.820312 -13.894531 15.8125 -15 C 14.800781 -16.113281 13.460938 -16.671875 11.796875 -16.671875 C 10.097656 -16.671875 8.742188 -16.117188 7.734375 -15.015625 C 6.722656 -13.921875 6.21875 -12.4375 6.21875 -10.5625 C 6.21875 -8.707031 6.722656 -7.222656 7.734375 -6.109375 C 8.742188 -5.003906 10.097656 -4.453125 11.796875 -4.453125 Z M 11.796875 -4.453125 "/></g></g></g><g fill="#7d2a8d" fill-opacity="1"><g transform="translate(118.662494, 30.092578)"><g><path d="M 12.5625 0 L 8.203125 -7.921875 L 6.96875 -7.921875 L 6.96875 0 L 1.859375 0 L 1.859375 -21 L 10.4375 -21 C 12.09375 -21 13.503906 -20.707031 14.671875 -20.125 C 15.835938 -19.550781 16.707031 -18.757812 17.28125 -17.75 C 17.863281 -16.75 18.15625 -15.628906 18.15625 -14.390625 C 18.15625 -12.992188 17.757812 -11.742188 16.96875 -10.640625 C 16.1875 -9.546875 15.03125 -8.769531 13.5 -8.3125 L 18.34375 0 Z M 6.96875 -11.546875 L 10.140625 -11.546875 C 11.078125 -11.546875 11.78125 -11.773438 12.25 -12.234375 C 12.71875 -12.691406 12.953125 -13.34375 12.953125 -14.1875 C 12.953125 -14.976562 12.71875 -15.601562 12.25 -16.0625 C 11.78125 -16.519531 11.078125 -16.75 10.140625 -16.75 L 6.96875 -16.75 Z M 6.96875 -11.546875 "/></g></g></g><g fill="#7d2a8d" fill-opacity="1"><g transform="translate(138.168623, 30.092578)"><g><path d="M 14.9375 -3.703125 L 7.09375 -3.703125 L 5.828125 0 L 0.484375 0 L 8.078125 -21 L 14 -21 L 21.609375 0 L 16.1875 0 Z M 13.609375 -7.65625 L 11.015625 -15.34375 L 8.4375 -7.65625 Z M 13.609375 -7.65625 "/></g></g></g></g></g><g fill="#7d2a8d" fill-opacity="1"><g transform="translate(111.914366, 267.891429)"><g><path d="M 1.8125 -6.75 L 1.8125 -4.21875 L 4.5625 -4.21875 L 4.5625 -3.40625 L 1.8125 -3.40625 L 1.8125 -0.8125 L 4.890625 -0.8125 L 4.890625 0 L 0.828125 0 L 0.828125 -7.5625 L 4.890625 -7.5625 L 4.890625 -6.75 Z M 1.8125 -6.75 "/></g></g></g><g fill="#7d2a8d" fill-opacity="1"><g transform="translate(117.463205, 267.891429)"><g><path d="M 7.078125 -7.546875 L 4.21875 0 L 3.09375 0 L 0.234375 -7.546875 L 1.28125 -7.546875 L 3.65625 -1.046875 L 6.03125 -7.546875 Z M 7.078125 -7.546875 "/></g></g></g><g fill="#7d2a8d" fill-opacity="1"><g transform="translate(124.775133, 267.891429)"><g><path d="M 1.8125 -6.75 L 1.8125 -4.21875 L 4.5625 -4.21875 L 4.5625 -3.40625 L 1.8125 -3.40625 L 1.8125 -0.8125 L 4.890625 -0.8125 L 4.890625 0 L 0.828125 0 L 0.828125 -7.5625 L 4.890625 -7.5625 L 4.890625 -6.75 Z M 1.8125 -6.75 "/></g></g></g><g fill="#7d2a8d" fill-opacity="1"><g transform="translate(130.323972, 267.891429)"><g><path d="M 6.765625 0 L 5.78125 0 L 1.8125 -6.015625 L 1.8125 0 L 0.828125 0 L 0.828125 -7.5625 L 1.8125 -7.5625 L 5.78125 -1.5625 L 5.78125 -7.5625 L 6.765625 -7.5625 Z M 6.765625 0 "/></g></g></g><g fill="#7d2a8d" fill-opacity="1"><g transform="translate(137.927941, 267.891429)"><g><path d="M 5.484375 -7.546875 L 5.484375 -6.75 L 3.421875 -6.75 L 3.421875 0 L 2.4375 0 L 2.4375 -6.75 L 0.375 -6.75 L 0.375 -7.546875 Z M 5.484375 -7.546875 "/></g></g></g><g fill="#7d2a8d" fill-opacity="1"><g transform="translate(143.779648, 267.891429)"><g/></g></g><g fill="#7d2a8d" fill-opacity="1"><g transform="translate(146.667645, 267.891429)"><g><path d="M 8.484375 -7.5 L 8.484375 0 L 7.5 0 L 7.5 -5.59375 L 5.015625 0 L 4.328125 0 L 1.8125 -5.59375 L 1.8125 0 L 0.828125 0 L 0.828125 -7.5 L 1.890625 -7.5 L 4.671875 -1.296875 L 7.4375 -7.5 Z M 8.484375 -7.5 "/></g></g></g><g fill="#7d2a8d" fill-opacity="1"><g transform="translate(155.980617, 267.891429)"><g><path d="M 5.296875 -1.671875 L 2 -1.671875 L 1.390625 0 L 0.359375 0 L 3.09375 -7.5 L 4.21875 -7.5 L 6.9375 0 L 5.90625 0 Z M 5.015625 -2.484375 L 3.65625 -6.296875 L 2.28125 -2.484375 Z M 5.015625 -2.484375 "/></g></g></g><g fill="#7d2a8d" fill-opacity="1"><g transform="translate(163.270904, 267.891429)"><g><path d="M 6.765625 0 L 5.78125 0 L 1.8125 -6.015625 L 1.8125 0 L 0.828125 0 L 0.828125 -7.5625 L 1.8125 -7.5625 L 5.78125 -1.5625 L 5.78125 -7.5625 L 6.765625 -7.5625 Z M 6.765625 0 "/></g></g></g><g fill="#7d2a8d" fill-opacity="1"><g transform="translate(170.874873, 267.891429)"><g><path d="M 5.296875 -1.671875 L 2 -1.671875 L 1.390625 0 L 0.359375 0 L 3.09375 -7.5 L 4.21875 -7.5 L 6.9375 0 L 5.90625 0 Z M 5.015625 -2.484375 L 3.65625 -6.296875 L 2.28125 -2.484375 Z M 5.015625 -2.484375 "/></g></g></g><g fill="#7d2a8d" fill-opacity="1"><g transform="translate(178.165159, 267.891429)"><g><path d="M 6.546875 -5.359375 C 6.335938 -5.796875 6.035156 -6.132812 5.640625 -6.375 C 5.242188 -6.625 4.78125 -6.75 4.25 -6.75 C 3.726562 -6.75 3.253906 -6.625 2.828125 -6.375 C 2.410156 -6.132812 2.078125 -5.789062 1.828125 -5.34375 C 1.585938 -4.894531 1.46875 -4.375 1.46875 -3.78125 C 1.46875 -3.1875 1.585938 -2.664062 1.828125 -2.21875 C 2.078125 -1.769531 2.410156 -1.425781 2.828125 -1.1875 C 3.253906 -0.945312 3.726562 -0.828125 4.25 -0.828125 C 4.988281 -0.828125 5.597656 -1.046875 6.078125 -1.484375 C 6.554688 -1.921875 6.832031 -2.515625 6.90625 -3.265625 L 3.890625 -3.265625 L 3.890625 -4.078125 L 7.953125 -4.078125 L 7.953125 -3.3125 C 7.898438 -2.6875 7.707031 -2.113281 7.375 -1.59375 C 7.039062 -1.082031 6.601562 -0.675781 6.0625 -0.375 C 5.519531 -0.0820312 4.914062 0.0625 4.25 0.0625 C 3.550781 0.0625 2.910156 -0.0976562 2.328125 -0.421875 C 1.753906 -0.753906 1.300781 -1.210938 0.96875 -1.796875 C 0.632812 -2.378906 0.46875 -3.039062 0.46875 -3.78125 C 0.46875 -4.519531 0.632812 -5.179688 0.96875 -5.765625 C 1.300781 -6.347656 1.753906 -6.804688 2.328125 -7.140625 C 2.910156 -7.472656 3.550781 -7.640625 4.25 -7.640625 C 5.050781 -7.640625 5.757812 -7.4375 6.375 -7.03125 C 7 -6.632812 7.453125 -6.078125 7.734375 -5.359375 Z M 6.546875 -5.359375 "/></g></g></g><g fill="#7d2a8d" fill-opacity="1"><g transform="translate(186.580366, 267.891429)"><g><path d="M 1.8125 -6.75 L 1.8125 -4.21875 L 4.5625 -4.21875 L 4.5625 -3.40625 L 1.8125 -3.40625 L 1.8125 -0.8125 L 4.890625 -0.8125 L 4.890625 0 L 0.828125 0 L 0.828125 -7.5625 L 4.890625 -7.5625 L 4.890625 -6.75 Z M 1.8125 -6.75 "/></g></g></g><g fill="#7d2a8d" fill-opacity="1"><g transform="translate(192.129205, 267.891429)"><g><path d="M 8.484375 -7.5 L 8.484375 0 L 7.5 0 L 7.5 -5.59375 L 5.015625 0 L 4.328125 0 L 1.8125 -5.59375 L 1.8125 0 L 0.828125 0 L 0.828125 -7.5 L 1.890625 -7.5 L 4.671875 -1.296875 L 7.4375 -7.5 Z M 8.484375 -7.5 "/></g></g></g><g fill="#7d2a8d" fill-opacity="1"><g transform="translate(201.442177, 267.891429)"><g><path d="M 1.8125 -6.75 L 1.8125 -4.21875 L 4.5625 -4.21875 L 4.5625 -3.40625 L 1.8125 -3.40625 L 1.8125 -0.8125 L 4.890625 -0.8125 L 4.890625 0 L 0.828125 0 L 0.828125 -7.5625 L 4.890625 -7.5625 L 4.890625 -6.75 Z M 1.8125 -6.75 "/></g></g></g><g fill="#7d2a8d" fill-opacity="1"><g transform="translate(206.991017, 267.891429)"><g><path d="M 6.765625 0 L 5.78125 0 L 1.8125 -6.015625 L 1.8125 0 L 0.828125 0 L 0.828125 -7.5625 L 1.8125 -7.5625 L 5.78125 -1.5625 L 5.78125 -7.5625 L 6.765625 -7.5625 Z M 6.765625 0 "/></g></g></g><g fill="#7d2a8d" fill-opacity="1"><g transform="translate(214.594986, 267.891429)"><g><path d="M 5.484375 -7.546875 L 5.484375 -6.75 L 3.421875 -6.75 L 3.421875 0 L 2.4375 0 L 2.4375 -6.75 L 0.375 -6.75 L 0.375 -7.546875 Z M 5.484375 -7.546875 "/></g></g></g><g fill="#7d2a8d" fill-opacity="1"><g transform="translate(220.446693, 267.891429)"><g/></g></g><g fill="#7d2a8d" fill-opacity="1"><g transform="translate(223.334689, 267.891429)"><g><path d="M 3.234375 0.078125 C 2.734375 0.078125 2.285156 -0.0078125 1.890625 -0.1875 C 1.492188 -0.363281 1.179688 -0.609375 0.953125 -0.921875 C 0.734375 -1.234375 0.625 -1.597656 0.625 -2.015625 L 1.671875 -2.015625 C 1.703125 -1.660156 1.84375 -1.363281 2.09375 -1.125 C 2.351562 -0.882812 2.734375 -0.765625 3.234375 -0.765625 C 3.703125 -0.765625 4.070312 -0.878906 4.34375 -1.109375 C 4.613281 -1.347656 4.75 -1.648438 4.75 -2.015625 C 4.75 -2.304688 4.664062 -2.539062 4.5 -2.71875 C 4.34375 -2.894531 4.144531 -3.03125 3.90625 -3.125 C 3.664062 -3.21875 3.34375 -3.320312 2.9375 -3.4375 C 2.445312 -3.5625 2.050781 -3.6875 1.75 -3.8125 C 1.445312 -3.945312 1.1875 -4.148438 0.96875 -4.421875 C 0.757812 -4.703125 0.65625 -5.082031 0.65625 -5.5625 C 0.65625 -5.96875 0.757812 -6.328125 0.96875 -6.640625 C 1.175781 -6.960938 1.46875 -7.207031 1.84375 -7.375 C 2.226562 -7.550781 2.664062 -7.640625 3.15625 -7.640625 C 3.863281 -7.640625 4.441406 -7.460938 4.890625 -7.109375 C 5.347656 -6.753906 5.601562 -6.285156 5.65625 -5.703125 L 4.578125 -5.703125 C 4.546875 -5.992188 4.394531 -6.25 4.125 -6.46875 C 3.851562 -6.6875 3.5 -6.796875 3.0625 -6.796875 C 2.65625 -6.796875 2.320312 -6.6875 2.0625 -6.46875 C 1.800781 -6.257812 1.671875 -5.96875 1.671875 -5.59375 C 1.671875 -5.3125 1.75 -5.082031 1.90625 -4.90625 C 2.0625 -4.738281 2.25 -4.609375 2.46875 -4.515625 C 2.695312 -4.429688 3.019531 -4.332031 3.4375 -4.21875 C 3.925781 -4.070312 4.320312 -3.929688 4.625 -3.796875 C 4.9375 -3.671875 5.195312 -3.46875 5.40625 -3.1875 C 5.625 -2.90625 5.734375 -2.53125 5.734375 -2.0625 C 5.734375 -1.6875 5.632812 -1.335938 5.4375 -1.015625 C 5.25 -0.691406 4.960938 -0.425781 4.578125 -0.21875 C 4.191406 -0.0195312 3.742188 0.078125 3.234375 0.078125 Z M 3.234375 0.078125 "/></g></g></g><g fill="#7d2a8d" fill-opacity="1"><g transform="translate(229.683951, 267.891429)"><g><path d="M 6.125 -7.546875 L 3.65625 -2.84375 L 3.65625 0 L 2.671875 0 L 2.671875 -2.84375 L 0.203125 -7.546875 L 1.296875 -7.546875 L 3.15625 -3.71875 L 5.03125 -7.546875 Z M 6.125 -7.546875 "/></g></g></g><g fill="#7d2a8d" fill-opacity="1"><g transform="translate(236.000757, 267.891429)"><g><path d="M 3.234375 0.078125 C 2.734375 0.078125 2.285156 -0.0078125 1.890625 -0.1875 C 1.492188 -0.363281 1.179688 -0.609375 0.953125 -0.921875 C 0.734375 -1.234375 0.625 -1.597656 0.625 -2.015625 L 1.671875 -2.015625 C 1.703125 -1.660156 1.84375 -1.363281 2.09375 -1.125 C 2.351562 -0.882812 2.734375 -0.765625 3.234375 -0.765625 C 3.703125 -0.765625 4.070312 -0.878906 4.34375 -1.109375 C 4.613281 -1.347656 4.75 -1.648438 4.75 -2.015625 C 4.75 -2.304688 4.664062 -2.539062 4.5 -2.71875 C 4.34375 -2.894531 4.144531 -3.03125 3.90625 -3.125 C 3.664062 -3.21875 3.34375 -3.320312 2.9375 -3.4375 C 2.445312 -3.5625 2.050781 -3.6875 1.75 -3.8125 C 1.445312 -3.945312 1.1875 -4.148438 0.96875 -4.421875 C 0.757812 -4.703125 0.65625 -5.082031 0.65625 -5.5625 C 0.65625 -5.96875 0.757812 -6.328125 0.96875 -6.640625 C 1.175781 -6.960938 1.46875 -7.207031 1.84375 -7.375 C 2.226562 -7.550781 2.664062 -7.640625 3.15625 -7.640625 C 3.863281 -7.640625 4.441406 -7.460938 4.890625 -7.109375 C 5.347656 -6.753906 5.601562 -6.285156 5.65625 -5.703125 L 4.578125 -5.703125 C 4.546875 -5.992188 4.394531 -6.25 4.125 -6.46875 C 3.851562 -6.6875 3.5 -6.796875 3.0625 -6.796875 C 2.65625 -6.796875 2.320312 -6.6875 2.0625 -6.46875 C 1.800781 -6.257812 1.671875 -5.96875 1.671875 -5.59375 C 1.671875 -5.3125 1.75 -5.082031 1.90625 -4.90625 C 2.0625 -4.738281 2.25 -4.609375 2.46875 -4.515625 C 2.695312 -4.429688 3.019531 -4.332031 3.4375 -4.21875 C 3.925781 -4.070312 4.320312 -3.929688 4.625 -3.796875 C 4.9375 -3.671875 5.195312 -3.46875 5.40625 -3.1875 C 5.625 -2.90625 5.734375 -2.53125 5.734375 -2.0625 C 5.734375 -1.6875 5.632812 -1.335938 5.4375 -1.015625 C 5.25 -0.691406 4.960938 -0.425781 4.578125 -0.21875 C 4.191406 -0.0195312 3.742188 0.078125 3.234375 0.078125 Z M 3.234375 0.078125 "/></g></g></g><g fill="#7d2a8d" fill-opacity="1"><g transform="translate(242.350019, 267.891429)"><g><path d="M 5.484375 -7.546875 L 5.484375 -6.75 L 3.421875 -6.75 L 3.421875 0 L 2.4375 0 L 2.4375 -6.75 L 0.375 -6.75 L 0.375 -7.546875 Z M 5.484375 -7.546875 "/></g></g></g><g fill="#7d2a8d" fill-opacity="1"><g transform="translate(248.201726, 267.891429)"><g><path d="M 1.8125 -6.75 L 1.8125 -4.21875 L 4.5625 -4.21875 L 4.5625 -3.40625 L 1.8125 -3.40625 L 1.8125 -0.8125 L 4.890625 -0.8125 L 4.890625 0 L 0.828125 0 L 0.828125 -7.5625 L 4.890625 -7.5625 L 4.890625 -6.75 Z M 1.8125 -6.75 "/></g></g></g><g fill="#7d2a8d" fill-opacity="1"><g transform="translate(253.750566, 267.891429)"><g><path d="M 8.484375 -7.5 L 8.484375 0 L 7.5 0 L 7.5 -5.59375 L 5.015625 0 L 4.328125 0 L 1.8125 -5.59375 L 1.8125 0 L 0.828125 0 L 0.828125 -7.5 L 1.890625 -7.5 L 4.671875 -1.296875 L 7.4375 -7.5 Z M 8.484375 -7.5 "/></g></g></g></svg>